<svg width="177" height="20" viewBox="0 0 177 20" fill="none" xmlns="http://www.w3.org/2000/svg">
<path d="M9.282 19.588C2.961 19.567 0.084 17.677 0.273 12.952H5.964C6.006 14.002 6.888 14.611 9.282 14.653C11.34 14.674 12.222 14.128 12.222 13.498C12.222 13.162 12.138 12.574 10.542 12.364L8.232 12.007C4.914 11.482 0.672 11.251 0.672 6.505C0.672 2.956 3.507 0.772 9.345 0.772C14.553 0.772 18.186 2.116 18.039 7.366H12.369C12.18 6.337 11.277 5.707 9.198 5.707C7.413 5.707 6.762 6.211 6.762 6.841C6.762 7.135 6.909 7.723 8.106 7.912L9.954 8.206C13.503 8.794 18.543 8.731 18.543 13.771C18.543 17.719 15.519 19.609 9.282 19.588ZM32.1018 1.36H38.4648V19H32.1018V12.847H25.8858V19H19.5438V1.36H25.8858V7.513H32.1018V1.36ZM49.5869 19.588C43.4339 19.588 39.5069 15.871 39.5069 10.18C39.5069 4.489 43.4339 0.772 49.5869 0.772C55.7609 0.772 59.6879 4.489 59.6879 10.18C59.6879 15.871 55.7609 19.588 49.5869 19.588ZM49.5869 14.107C51.6239 14.107 53.3669 12.742 53.3669 10.18C53.3669 7.618 51.6239 6.253 49.5869 6.253C47.5709 6.253 45.8069 7.618 45.8069 10.18C45.8069 12.742 47.5709 14.107 49.5869 14.107ZM60.7645 19V1.36H71.0335C75.8845 1.36 78.8455 3.46 78.8455 8.395C78.8455 13.309 75.8845 15.409 71.0545 15.409H67.1065V19H60.7645ZM67.1065 10.138H70.4665C71.6425 10.138 72.4195 9.55 72.4195 8.395C72.4195 7.219 71.6425 6.631 70.4875 6.631H67.1065V10.138ZM80.009 19V1.36H86.351V19H80.009ZM87.7364 19V1.36H95.0024L100.084 10.117H100.672V1.36H106.867V19H99.7484L94.4984 10.243H93.9314V19H87.7364ZM127.43 9.109V19H124.154L124.07 16.816H124.007C122.768 18.412 120.605 19.588 117.539 19.588C112.1 19.588 107.921 15.871 107.921 10.18C107.921 4.489 111.869 0.772 118.106 0.772C122.39 0.772 126.8 2.851 127.409 7.702H121.088C120.836 7.072 119.849 6.253 118.253 6.253C115.88 6.253 114.221 7.744 114.221 10.18C114.221 12.595 115.922 14.107 118.064 14.107C118.652 14.107 120.71 14.044 121.319 12.196H117.833V9.109H127.43ZM132.037 19.336C130.357 19.336 128.929 17.929 128.929 16.27C128.929 14.59 130.357 13.183 132.037 13.183C133.738 13.183 135.166 14.59 135.166 16.27C135.166 17.929 133.738 19.336 132.037 19.336ZM146.242 19.588C140.215 19.588 136.246 15.871 136.246 10.18C136.246 4.489 140.215 0.772 146.242 0.772C150.673 0.772 155.251 2.725 155.734 8.941H149.686C149.287 7.114 148.048 6.253 146.242 6.253C144.205 6.253 142.546 7.744 142.546 10.18C142.546 12.595 144.205 14.107 146.242 14.107C148.048 14.107 149.287 13.246 149.686 11.377H155.734C155.251 17.635 150.736 19.588 146.242 19.588ZM166.851 19.588C160.698 19.588 156.771 15.871 156.771 10.18C156.771 4.489 160.698 0.772 166.851 0.772C173.025 0.772 176.952 4.489 176.952 10.18C176.952 15.871 173.025 19.588 166.851 19.588ZM166.851 14.107C168.888 14.107 170.631 12.742 170.631 10.18C170.631 7.618 168.888 6.253 166.851 6.253C164.835 6.253 163.071 7.618 163.071 10.18C163.071 12.742 164.835 14.107 166.851 14.107Z" fill="black"/>
</svg>
